<svg width="1800" height="1000" viewBox="0 0 1800 1000" fill="none" xmlns="http://www.w3.org/2000/svg">
  <defs>
    <linearGradient id="bg" x1="0" y1="0" x2="1800" y2="1000" gradientUnits="userSpaceOnUse">
      <stop stop-color="#070f26"/>
      <stop offset="0.55" stop-color="#0b1f4b"/>
      <stop offset="1" stop-color="#122e78"/>
    </linearGradient>
    <linearGradient id="coral" x1="170" y1="183" x2="1302" y2="764" gradientUnits="userSpaceOnUse">
      <stop stop-color="#ff785f"/>
      <stop offset="0.48" stop-color="#e84c30"/>
      <stop offset="1" stop-color="#bf351e"/>
    </linearGradient>
    <radialGradient id="glow" cx="0" cy="0" r="1" gradientUnits="userSpaceOnUse" gradientTransform="translate(474 376) rotate(33.443) scale(598 333)">
      <stop stop-color="#e84c30" stop-opacity="0.45"/>
      <stop offset="1" stop-color="#e84c30" stop-opacity="0"/>
    </radialGradient>
    <filter id="shadow" x="-20%" y="-20%" width="140%" height="140%">
      <feDropShadow dx="0" dy="34" stdDeviation="42" flood-color="#000000" flood-opacity="0.38"/>
    </filter>
  </defs>
  <rect width="1800" height="1000" rx="54" fill="url(#bg)"/>
  <rect width="1800" height="1000" rx="54" fill="url(#glow)"/>
  <g opacity="0.14">
    <path d="M0 160H1800M0 320H1800M0 480H1800M0 640H1800M0 800H1800" stroke="white"/>
    <path d="M180 0V1000M360 0V1000M540 0V1000M720 0V1000M900 0V1000M1080 0V1000M1260 0V1000M1440 0V1000M1620 0V1000" stroke="white"/>
  </g>
  <path d="M150 755C388 543 589 476 753 555C951 650 1129 605 1287 417C1397 286 1518 236 1661 268" stroke="url(#coral)" stroke-width="5" stroke-linecap="round"/>
  <path d="M150 755C388 543 589 476 753 555C951 650 1129 605 1287 417C1397 286 1518 236 1661 268" stroke="#ffffff" stroke-opacity="0.22" stroke-width="18" stroke-linecap="round"/>
  <circle cx="150" cy="755" r="18" fill="#e84c30"/>
  <circle cx="753" cy="555" r="18" fill="#e84c30"/>
  <circle cx="1287" cy="417" r="18" fill="#e84c30"/>
  <circle cx="1661" cy="268" r="18" fill="#e84c30"/>
  <g filter="url(#shadow)">
    <rect x="112" y="112" width="1576" height="776" rx="44" fill="white" fill-opacity="0.075" stroke="white" stroke-opacity="0.15"/>
  </g>
  <text x="150" y="215" font-family="Montserrat, Arial, sans-serif" font-size="36" font-weight="900" fill="#e84c30" letter-spacing="1.6">РИТЕЙЛ КОНТРАКТ</text>
  <text x="150" y="315" font-family="Montserrat, Arial, sans-serif" font-size="86" font-weight="900" fill="#ffffff" letter-spacing="-2">Путь к полке</text>
  <text x="150" y="403" font-family="Montserrat, Arial, sans-serif" font-size="86" font-weight="900" fill="#ffffff" letter-spacing="-2">начинается здесь</text>
  <text x="150" y="494" font-family="Manrope, Arial, sans-serif" font-size="31" font-weight="600" fill="#b7c1d5">Диагностика продукта, коммерческое предложение и выход на закупщика.</text>
  <text x="150" y="542" font-family="Manrope, Arial, sans-serif" font-size="31" font-weight="600" fill="#b7c1d5">Сопровождаем переговоры до понятного коммерческого результата.</text>
  <g transform="translate(150 604)">
    <rect x="0" y="0" width="355" height="128" rx="28" fill="#071226" fill-opacity="0.62" stroke="white" stroke-opacity="0.13"/>
    <text x="38" y="57" font-family="Montserrat, Arial, sans-serif" font-size="42" font-weight="900" fill="#e84c30">25</text>
    <text x="38" y="93" font-family="Manrope, Arial, sans-serif" font-size="20" font-weight="800" fill="#cdd5e6" letter-spacing="1">ЛЕТ ОПЫТА</text>
    <rect x="385" y="0" width="355" height="128" rx="28" fill="#071226" fill-opacity="0.62" stroke="white" stroke-opacity="0.13"/>
    <text x="423" y="57" font-family="Montserrat, Arial, sans-serif" font-size="42" font-weight="900" fill="#e84c30">350+</text>
    <text x="423" y="93" font-family="Manrope, Arial, sans-serif" font-size="20" font-weight="800" fill="#cdd5e6" letter-spacing="1">СЕТЕЙ В ФОКУСЕ</text>
    <rect x="770" y="0" width="355" height="128" rx="28" fill="#071226" fill-opacity="0.62" stroke="white" stroke-opacity="0.13"/>
    <text x="808" y="57" font-family="Montserrat, Arial, sans-serif" font-size="42" font-weight="900" fill="#e84c30">48 ч</text>
    <text x="808" y="93" font-family="Manrope, Arial, sans-serif" font-size="20" font-weight="800" fill="#cdd5e6" letter-spacing="1">ПЕРВЫЙ РАЗБОР</text>
  </g>
  <g transform="translate(1220 578)">
    <rect x="0" y="0" width="352" height="210" rx="34" fill="#e84c30"/>
    <path d="M63 70H289M63 112H240M63 154H267" stroke="white" stroke-opacity="0.9" stroke-width="12" stroke-linecap="round"/>
    <text x="176" y="246" text-anchor="middle" font-family="Manrope, Arial, sans-serif" font-size="24" font-weight="900" fill="#ffffff">QR / ссылка на заявку</text>
  </g>
  <text x="150" y="840" font-family="Manrope, Arial, sans-serif" font-size="28" font-weight="800" fill="#ffffff">Платформа: <tspan fill="#e84c30">Сейл Трекер</tspan></text>
  <text x="730" y="840" font-family="Manrope, Arial, sans-serif" font-size="28" font-weight="800" fill="#ffffff">Программа: <tspan fill="#e84c30">Ритейл контракт</tspan></text>
</svg>
