<svg width="1800" height="1000" viewBox="0 0 1800 1000" fill="none" xmlns="http://www.w3.org/2000/svg">
  <defs>
    <linearGradient id="bg" x1="0" y1="0" x2="1800" y2="1000" gradientUnits="userSpaceOnUse">
      <stop stop-color="#070f26"/>
      <stop offset="0.56" stop-color="#0b1f4b"/>
      <stop offset="1" stop-color="#122e78"/>
    </linearGradient>
    <linearGradient id="coral" x1="114" y1="122" x2="976" y2="880" gradientUnits="userSpaceOnUse">
      <stop stop-color="#ff775e"/>
      <stop offset="0.45" stop-color="#e84c30"/>
      <stop offset="1" stop-color="#9e2b19"/>
    </linearGradient>
    <linearGradient id="glass" x1="113" y1="146" x2="1141" y2="871" gradientUnits="userSpaceOnUse">
      <stop stop-color="white" stop-opacity="0.16"/>
      <stop offset="1" stop-color="white" stop-opacity="0.04"/>
    </linearGradient>
    <radialGradient id="glowA" cx="0" cy="0" r="1" gradientUnits="userSpaceOnUse" gradientTransform="translate(1264 238) rotate(139.92) scale(621 379)">
      <stop stop-color="#e84c30" stop-opacity="0.55"/>
      <stop offset="1" stop-color="#e84c30" stop-opacity="0"/>
    </radialGradient>
    <radialGradient id="glowB" cx="0" cy="0" r="1" gradientUnits="userSpaceOnUse" gradientTransform="translate(1556 737) rotate(-143.572) scale(445 284)">
      <stop stop-color="#2c73d2" stop-opacity="0.45"/>
      <stop offset="1" stop-color="#2c73d2" stop-opacity="0"/>
    </radialGradient>
    <clipPath id="visualClip">
      <path d="M1040 0H1800V1000H913C1065 795 1101 594 1017 397C972 290 976 150 1040 0Z"/>
    </clipPath>
    <filter id="softShadow" x="-20%" y="-20%" width="140%" height="140%">
      <feDropShadow dx="0" dy="32" stdDeviation="36" flood-color="#000000" flood-opacity="0.36"/>
    </filter>
  </defs>
  <rect width="1800" height="1000" rx="54" fill="url(#bg)"/>
  <rect width="1800" height="1000" rx="54" fill="url(#glowA)"/>
  <rect width="1800" height="1000" rx="54" fill="url(#glowB)"/>
  <g opacity="0.16">
    <path d="M0 160H1800M0 320H1800M0 480H1800M0 640H1800M0 800H1800" stroke="white"/>
    <path d="M180 0V1000M360 0V1000M540 0V1000M720 0V1000M900 0V1000M1080 0V1000M1260 0V1000M1440 0V1000M1620 0V1000" stroke="white"/>
  </g>
  <g clip-path="url(#visualClip)">
    <image href="../images/brand/business-card-accent.png" x="782" y="-104" width="1100" height="1100" preserveAspectRatio="xMidYMid slice" opacity="0.98"/>
    <rect x="840" y="0" width="960" height="1000" fill="url(#bg)" opacity="0.18"/>
  </g>
  <path d="M984 0C882 205 897 388 967 539C1039 696 1006 852 868 1000" stroke="url(#coral)" stroke-width="3" opacity="0.88"/>
  <path d="M960 111C806 222 714 356 687 513C660 671 714 819 850 955" stroke="white" stroke-opacity="0.12" stroke-width="2"/>
  <g filter="url(#softShadow)">
    <rect x="94" y="104" width="885" height="792" rx="42" fill="url(#glass)" stroke="white" stroke-opacity="0.14"/>
  </g>
  <rect x="140" y="150" width="130" height="130" rx="32" fill="#e84c30" fill-opacity="0.15" stroke="#e84c30" stroke-opacity="0.7" stroke-width="2"/>
  <text x="205" y="234" text-anchor="middle" font-family="Montserrat, Arial, sans-serif" font-size="46" font-weight="900" fill="#ffffff">СТ</text>
  <text x="305" y="181" font-family="Montserrat, Arial, sans-serif" font-size="30" font-weight="800" fill="#e84c30">Сейл Трекер</text>
  <text x="305" y="224" font-family="Manrope, Arial, sans-serif" font-size="29" font-weight="700" fill="#ffffff">платформа для выхода в сети</text>
  <text x="140" y="396" font-family="Montserrat, Arial, sans-serif" font-size="96" font-weight="900" fill="#ffffff" letter-spacing="-2">Александр</text>
  <text x="140" y="493" font-family="Montserrat, Arial, sans-serif" font-size="96" font-weight="900" fill="#e84c30" letter-spacing="-2">Денисенко</text>
  <text x="145" y="575" font-family="Manrope, Arial, sans-serif" font-size="36" font-weight="800" fill="#cdd5e6">Key Account Manager</text>
  <path d="M144 632H791" stroke="white" stroke-opacity="0.16" stroke-width="2"/>
  <text x="145" y="705" font-family="Montserrat, Arial, sans-serif" font-size="37" font-weight="900" fill="#ffffff">Ритейл контракт</text>
  <text x="145" y="757" font-family="Manrope, Arial, sans-serif" font-size="29" font-weight="600" fill="#aeb8ce">Программа для поставщиков:</text>
  <text x="145" y="799" font-family="Manrope, Arial, sans-serif" font-size="26" font-weight="700" fill="#aeb8ce">от готовности продукта до договора поставки с сетью.</text>
  <g transform="translate(145 842)">
    <circle cx="14" cy="14" r="7" fill="#e84c30"/>
    <text x="38" y="24" font-family="Manrope, Arial, sans-serif" font-size="25" font-weight="800" fill="#ffffff">ABC-оценка</text>
    <circle cx="240" cy="14" r="7" fill="#e84c30"/>
    <text x="264" y="24" font-family="Manrope, Arial, sans-serif" font-size="25" font-weight="800" fill="#ffffff">КП под сеть</text>
    <circle cx="495" cy="14" r="7" fill="#e84c30"/>
    <text x="519" y="24" font-family="Manrope, Arial, sans-serif" font-size="25" font-weight="800" fill="#ffffff">переговоры</text>
  </g>
  <text x="1584" y="874" text-anchor="middle" font-family="Montserrat, Arial, sans-serif" font-size="40" font-weight="900" fill="#ffffff">80%</text>
  <text x="1584" y="912" text-anchor="middle" font-family="Manrope, Arial, sans-serif" font-size="21" font-weight="800" fill="#cdd5e6" letter-spacing="1.4">ЭФФЕКТИВНОСТЬ</text>
</svg>
